<svg height="480pt" viewBox="0 -24 480 480" width="480pt" xmlns="http://www.w3.org/2000/svg"><path d="m479.984375 88c0-.105469-.054687-.183594-.054687-.289062-.015626-.949219-.203126-1.890626-.554688-2.777344 0-.070313-.085938-.125-.117188-.199219-.453124-1.042969-1.148437-1.957031-2.035156-2.671875-.503906-.441406-1.0625-.816406-1.664062-1.117188-.257813-.136718-.527344-.261718-.796875-.371093-.886719-.355469-1.824219-.550781-2.777344-.574219h-125.28125l-84.503906-65c-3.652344-9.0625-12.445313-15-22.214844-15-9.773437 0-18.5625 5.9375-22.214844 15l-84.503906 65h-125.28125c-.957031.019531-1.902344.207031-2.792969.558594-.257812.109375-.511718.230468-.757812.367187-.839844.445313-1.609375 1.007813-2.28125 1.671875-.589844.628906-1.074219 1.347656-1.433594 2.128906 0 .066407-.085938.121094-.109375.183594-.347656.886719-.5351562 1.828125-.5546875 2.777344 0 .105469-.0546875.183594-.0546875.289062v336.023438c0 .101562.0546875.183594.0546875.289062.0195313.949219.2070315 1.890626.5546875 2.773438 0 .066406.078125.121094.109375.183594.453125 1.046875 1.15625 1.964844 2.042969 2.679687.503906.445313 1.066406.820313 1.671875 1.121094.246094.136719.5.261719.757812.367187.890625.363282 1.835938.558594 2.792969.585938h464c.957031-.019531 1.902344-.207031 2.792969-.558594.273437-.109375.539062-.234375.796875-.371094.601562-.300781 1.160156-.675781 1.664062-1.117187.886719-.714844 1.582031-1.632813 2.035157-2.671875 0-.074219.09375-.128906.117187-.203125.351563-.882813.539063-1.824219.554687-2.773437 0-.105469.054688-.183594.054688-.289063zm-432 296v-38.761719c41.039063 6.449219 80.820313 19.273438 117.902344 38l-.871094.761719zm384-87.359375-32 2.664063v-20.800782c9.546875-3.375 15.949219-12.378906 16-22.503906v-40c0-13.253906-10.746094-24-24-24s-24 10.746094-24 24v40c.042969 10.132812 6.445313 19.148438 16 22.527344v22.113281l-29.410156 2.445313c-.863281.074218-1.726563.195312-2.589844.273437v-63.359375c0-.113281-.054687-.199219-.0625-.304688-.015625-.914062-.183594-1.816406-.507813-2.671874l-16-40c-1.210937-3.042969-4.15625-5.039063-7.429687-5.039063-3.277344 0-6.21875 1.996094-7.433594 5.039063l-16 40c-.320312.851562-.488281 1.753906-.503906 2.664062 0 .113281-.0625.199219-.0625.3125v9.902344l-25.847656-31.023438c-1.441407-1.726562-3.539063-2.769531-5.785157-2.871094-2.25-.105468-4.433593.746094-6.023437 2.335938l-48 48c-.636719.660156-1.152344 1.425781-1.527344 2.265625-.101562.242187-.191406.496094-.265625.75-.238281.683594-.382812 1.398437-.429687 2.121094 0 .175781-.097657.320312-.097657.488281v65.894531c-50.648437-33.492187-107.984374-55.554687-168.023437-64.648437v-145.214844h384zm-40-32.640625c-4.417969 0-8-3.582031-8-8v-40c0-4.417969 3.582031-8 8-8s8 3.582031 8 8v40c0 4.417969-3.582031 8-8 8zm-120 57.070312c-2.671875.953126-5.351563 1.890626-8 2.914063v-19.984375h8zm8-33.070312h-24c-4.417969 0-8 3.582031-8 8v34.703125c-5.398437 2.417969-10.730469 4.976563-16 7.679687v-58.382812h72v31.414062c-5.371094 1.328126-10.703125 2.78125-16 4.363282v-19.777344c0-4.417969-3.582031-8-8-8zm-100.640625 84.085938c-41.078125-21.554688-85.480469-36.070313-131.359375-42.933594v-39.90625c57.285156 9.089844 111.925781 30.457031 160.183594 62.632812-9.964844 6.214844-19.585938 12.960938-28.824219 20.207032zm63.953125-108.085938 28.152344-28.152344 23.453125 28.152344zm76.6875 8v-24h16v57.253906c-5.332031.765625-10.667969 1.65625-16 2.679688zm3.816406-40 4.183594-10.464844 4.183594 10.464844zm-291.816406 48v108.6875l-16 16v-297.375l16 16zm323.917969 39.03125 76.082031-6.335938v71.304688h-242c47.859375-37.242188 105.496094-59.8125 165.917969-64.96875zm92.082031-15.03125v-180.6875l16-16v297.375l-16-16zm-208-288c4.417969 0 8 3.582031 8 8s-3.582031 8-8 8-8-3.582031-8-8 3.582031-8 8-8zm-21.433594 18.574219c3.984375 8.210937 12.308594 13.421875 21.433594 13.421875s17.445313-5.210938 21.429687-13.421875l59.050782 45.425781h-160.960938zm234.121094 61.425781-16 16h-393.375l-16-16zm-425.375 320 16-16h393.375l16 16zm0 0"/><path d="m87.984375 248h16c0 13.253906 10.746094 24 24 24h40c11.714844 0 21.714844-8.457031 23.664063-20.007812 1.949218-11.550782-4.726563-22.820313-15.792969-26.664063-.828125-8.808594-5.78125-16.707031-13.347657-21.289063-7.566406-4.585937-16.859374-5.320312-25.050781-1.976562-.554687-.230469-1.066406-.542969-1.601562-.734375-1.378907-14.363281-13.445313-25.328125-27.871094-25.328125-14.429687 0-26.496094 10.964844-27.871094 25.328125-11.066406 3.84375-17.742187 15.113281-15.792969 26.664063 1.945313 11.550781 11.949219 20.007812 23.664063 20.007812zm72-20v4c0 4.417969 3.582031 8 8 8s8 3.582031 8 8-3.582031 8-8 8h-40c-4.417969 0-8-3.582031-8-8s3.582031-8 8-8 8-3.582031 8-8v-4c0-6.628906 5.371094-12 12-12s12 5.371094 12 12zm-72-12c4.417969 0 8-3.582031 8-8v-4c0-6.628906 5.371094-12 12-12s12 5.371094 12 12v4c.03125 2.621094 1.371094 5.054688 3.566406 6.488281-1.886719 3.335938-3.058593 7.027344-3.4375 10.839844-3.820312 1.347656-7.230469 3.644531-9.921875 6.671875h-22.207031c-4.417969 0-8-3.582031-8-8s3.582031-8 8-8zm0 0"/><path d="m207.984375 208c17.671875 0 32-14.328125 32-32s-14.328125-32-32-32-32 14.328125-32 32 14.328125 32 32 32zm0-48c8.835937 0 16 7.164062 16 16s-7.164063 16-16 16-16-7.164062-16-16 7.164063-16 16-16zm0 0"/></svg>